#Comment line ignore any data following # character 
#Hierarchical Translation and Rotation (.htr) file 
[Header]	
#Header keywords are followed by a single value 
FileType HTR		#Single word string
DataType HTRS		#Translation followed by rotation and scale data
FileVersion 1		#integer
NumSegments 84		#integer
NumFrames 2		#integer
DataFrameRate 30		#integer, data frame rate in this file
EulerRotationOrder ZYX
CalibrationUnits mm
RotationUnits Degrees
GlobalAxisofGravity Y
BoneLengthAxis Y
ScaleFactor 1.00
[SegmentNames&Hierarchy]
#CHILD	PARENT
MASTER GLOBAL
root MASTER
chest root
L_mid_tent01 root
R_mid_tent01 root
spine01 root
Bip01_Neck chest
L_humerus chest
R_humerus chest
weapon_bone chest
Bip01_Head Bip01_Neck
eye_left_bone Bip01_Head
eye_right_bone Bip01_Head
L_forearm L_humerus
L_front_hand L_forearm
L_weapon_bone L_forearm
L_front_hand01_01 L_front_hand
L_front_hand02_01 L_front_hand
L_front_hand03_01 L_front_hand
L_front_hand01_02 L_front_hand01_01
L_front_hand02_02 L_front_hand02_01
L_front_hand03_02 L_front_hand03_01
R_forearm R_humerus
R_front_hand R_forearm
R_weapon_bone R_forearm
R_front_hand01_01 R_front_hand
R_front_hand02_01 R_front_hand
R_front_hand03_01 R_front_hand
R_front_hand01_02 R_front_hand01_01
R_front_hand02_02 R_front_hand02_01
R_front_hand03_02 R_front_hand03_01
null_rope01_connect L_mid_tent01
Rope1_Seg01 null_rope01_connect
Rope1_Seg02 Rope1_Seg01
Rope1_Seg03 Rope1_Seg02
Rope1_Seg04 Rope1_Seg03
Rope1_Seg05 Rope1_Seg04
Rope1_Seg06 Rope1_Seg05
Rope1_Seg07 Rope1_Seg06
Rope1_Seg09 Rope1_Seg07
L_mid_hand01 Rope1_Seg09
L_mid_hand02 Rope1_Seg09
L_mid_hand03 Rope1_Seg09
null_rope02_connect R_mid_tent01
Rope2_Seg01 null_rope02_connect
Rope2_Seg02 Rope2_Seg01
Rope2_Seg03 Rope2_Seg02
Rope2_Seg04 Rope2_Seg03
Rope2_Seg05 Rope2_Seg04
Rope2_Seg06 Rope2_Seg05
Rope2_Seg07 Rope2_Seg06
Rope2_Seg09 Rope2_Seg07
R_mid_hand01 Rope2_Seg09
R_mid_hand02 Rope2_Seg09
R_mid_hand03 Rope2_Seg09
spine02 spine01
spine03 spine02
pelvis spine03
null_rope03_connect pelvis
null_rope04_connect pelvis
Rope3_Seg01 null_rope03_connect
Rope3_Seg02 Rope3_Seg01
Rope3_Seg03 Rope3_Seg02
Rope3_Seg04 Rope3_Seg03
Rope3_Seg05 Rope3_Seg04
Rope3_Seg06 Rope3_Seg05
Rope3_Seg07 Rope3_Seg06
Rope3_Seg08 Rope3_Seg07
Rope3_Seg09 Rope3_Seg08
R_rear_hand01 Rope3_Seg09
R_rear_hand02 Rope3_Seg09
R_rear_hand03 Rope3_Seg09
Rope4_Seg01 null_rope04_connect
Rope4_Seg02 Rope4_Seg01
Rope4_Seg03 Rope4_Seg02
Rope4_Seg04 Rope4_Seg03
Rope4_Seg05 Rope4_Seg04
Rope4_Seg06 Rope4_Seg05
Rope4_Seg07 Rope4_Seg06
Rope4_Seg08 Rope4_Seg07
Rope4_Seg09 Rope4_Seg08
L_rear_hand01 Rope4_Seg09
L_rear_hand02 Rope4_Seg09
L_rear_hand03 Rope4_Seg09
[BasePosition]
#SegmentName Tx, Ty, Tz, Rx, Ry, Rz, BoneLength
MASTER 0.000000 0.000000 0.000000 -90.000000 0.000000 0.000000 10.000000 
root 0.000000 0.000000 0.000000 0.000000 0.000000 0.000000 10.000000 
chest 0.000000 0.000000 0.000000 0.000000 0.000000 0.000000 10.000000 
L_mid_tent01 0.000000 0.000000 0.000000 0.000000 0.000000 0.000000 10.000000 
R_mid_tent01 0.000000 0.000000 0.000000 0.000000 0.000000 0.000000 10.000000 
spine01 0.000000 0.000000 0.000000 0.000000 0.000000 0.000000 10.000000 
Bip01_Neck 0.000000 0.000000 0.000000 0.000000 0.000000 0.000000 10.000000 
L_humerus 0.000000 0.000000 0.000000 0.000000 0.000000 0.000000 10.000000 
R_humerus 0.000000 0.000000 0.000000 0.000000 0.000000 0.000000 10.000000 
weapon_bone 0.000000 0.000000 0.000000 0.000000 0.000000 0.000000 10.000000 
Bip01_Head 0.000000 0.000000 0.000000 0.000000 0.000000 0.000000 10.000000 
eye_left_bone 0.000000 0.000000 0.000000 0.000000 0.000000 0.000000 10.000000 
eye_right_bone 0.000000 0.000000 0.000000 0.000000 0.000000 0.000000 10.000000 
L_forearm 0.000000 0.000000 0.000000 0.000000 0.000000 0.000000 10.000000 
L_front_hand 0.000000 0.000000 0.000000 0.000000 0.000000 0.000000 10.000000 
L_weapon_bone 0.000000 0.000000 0.000000 0.000000 0.000000 0.000000 10.000000 
L_front_hand01_01 0.000000 0.000000 0.000000 0.000000 0.000000 0.000000 10.000000 
L_front_hand02_01 0.000000 0.000000 0.000000 0.000000 0.000000 0.000000 10.000000 
L_front_hand03_01 0.000000 0.000000 0.000000 0.000000 0.000000 0.000000 10.000000 
L_front_hand01_02 0.000000 0.000000 0.000000 0.000000 0.000000 0.000000 10.000000 
L_front_hand02_02 0.000000 0.000000 0.000000 0.000000 0.000000 0.000000 10.000000 
L_front_hand03_02 0.000000 0.000000 0.000000 0.000000 0.000000 0.000000 10.000000 
R_forearm 0.000000 0.000000 0.000000 0.000000 0.000000 0.000000 10.000000 
R_front_hand 0.000000 0.000000 0.000000 0.000000 0.000000 0.000000 10.000000 
R_weapon_bone 0.000000 0.000000 0.000000 0.000000 0.000000 0.000000 10.000000 
R_front_hand01_01 0.000000 0.000000 0.000000 0.000000 0.000000 0.000000 10.000000 
R_front_hand02_01 0.000000 0.000000 0.000000 0.000000 0.000000 0.000000 10.000000 
R_front_hand03_01 0.000000 0.000000 0.000000 0.000000 0.000000 0.000000 10.000000 
R_front_hand01_02 0.000000 0.000000 0.000000 0.000000 0.000000 0.000000 10.000000 
R_front_hand02_02 0.000000 0.000000 0.000000 0.000000 0.000000 0.000000 10.000000 
R_front_hand03_02 0.000000 0.000000 0.000000 0.000000 0.000000 0.000000 10.000000 
null_rope01_connect 0.000000 0.000000 0.000000 0.000000 0.000000 0.000000 10.000000 
Rope1_Seg01 0.000000 0.000000 0.000000 0.000000 0.000000 0.000000 10.000000 
Rope1_Seg02 0.000000 0.000000 0.000000 0.000000 0.000000 0.000000 10.000000 
Rope1_Seg03 0.000000 0.000000 0.000000 0.000000 0.000000 0.000000 10.000000 
Rope1_Seg04 0.000000 0.000000 0.000000 0.000000 0.000000 0.000000 10.000000 
Rope1_Seg05 0.000000 0.000000 0.000000 0.000000 0.000000 0.000000 10.000000 
Rope1_Seg06 0.000000 0.000000 0.000000 0.000000 0.000000 0.000000 10.000000 
Rope1_Seg07 0.000000 0.000000 0.000000 0.000000 0.000000 0.000000 10.000000 
Rope1_Seg09 0.000000 0.000000 0.000000 0.000000 0.000000 0.000000 10.000000 
L_mid_hand01 0.000000 0.000000 0.000000 0.000000 0.000000 0.000000 10.000000 
L_mid_hand02 0.000000 0.000000 0.000000 0.000000 0.000000 0.000000 10.000000 
L_mid_hand03 0.000000 0.000000 0.000000 0.000000 0.000000 0.000000 10.000000 
null_rope02_connect 0.000000 0.000000 0.000000 0.000000 0.000000 0.000000 10.000000 
Rope2_Seg01 0.000000 0.000000 0.000000 0.000000 0.000000 0.000000 10.000000 
Rope2_Seg02 0.000000 0.000000 0.000000 0.000000 0.000000 0.000000 10.000000 
Rope2_Seg03 0.000000 0.000000 0.000000 0.000000 0.000000 0.000000 10.000000 
Rope2_Seg04 0.000000 0.000000 0.000000 0.000000 0.000000 0.000000 10.000000 
Rope2_Seg05 0.000000 0.000000 0.000000 0.000000 0.000000 0.000000 10.000000 
Rope2_Seg06 0.000000 0.000000 0.000000 0.000000 0.000000 0.000000 10.000000 
Rope2_Seg07 0.000000 0.000000 0.000000 0.000000 0.000000 0.000000 10.000000 
Rope2_Seg09 0.000000 0.000000 0.000000 0.000000 0.000000 0.000000 10.000000 
R_mid_hand01 0.000000 0.000000 0.000000 0.000000 0.000000 0.000000 10.000000 
R_mid_hand02 0.000000 0.000000 0.000000 0.000000 0.000000 0.000000 10.000000 
R_mid_hand03 0.000000 0.000000 0.000000 0.000000 0.000000 0.000000 10.000000 
spine02 0.000000 0.000000 0.000000 0.000000 0.000000 0.000000 10.000000 
spine03 0.000000 0.000000 0.000000 0.000000 0.000000 0.000000 10.000000 
pelvis 0.000000 0.000000 0.000000 0.000000 0.000000 0.000000 10.000000 
null_rope03_connect 0.000000 0.000000 0.000000 0.000000 0.000000 0.000000 10.000000 
null_rope04_connect 0.000000 0.000000 0.000000 0.000000 0.000000 0.000000 10.000000 
Rope3_Seg01 0.000000 0.000000 0.000000 0.000000 0.000000 0.000000 10.000000 
Rope3_Seg02 0.000000 0.000000 0.000000 0.000000 0.000000 0.000000 10.000000 
Rope3_Seg03 0.000000 0.000000 0.000000 0.000000 0.000000 0.000000 10.000000 
Rope3_Seg04 0.000000 0.000000 0.000000 0.000000 0.000000 0.000000 10.000000 
Rope3_Seg05 0.000000 0.000000 0.000000 0.000000 0.000000 0.000000 10.000000 
Rope3_Seg06 0.000000 0.000000 0.000000 0.000000 0.000000 0.000000 10.000000 
Rope3_Seg07 0.000000 0.000000 0.000000 0.000000 0.000000 0.000000 10.000000 
Rope3_Seg08 0.000000 0.000000 0.000000 0.000000 0.000000 0.000000 10.000000 
Rope3_Seg09 0.000000 0.000000 0.000000 0.000000 0.000000 0.000000 10.000000 
R_rear_hand01 0.000000 0.000000 0.000000 0.000000 0.000000 0.000000 10.000000 
R_rear_hand02 0.000000 0.000000 0.000000 0.000000 0.000000 0.000000 10.000000 
R_rear_hand03 0.000000 0.000000 0.000000 0.000000 0.000000 0.000000 10.000000 
Rope4_Seg01 0.000000 0.000000 0.000000 0.000000 0.000000 0.000000 10.000000 
Rope4_Seg02 0.000000 0.000000 0.000000 0.000000 0.000000 0.000000 10.000000 
Rope4_Seg03 0.000000 0.000000 0.000000 0.000000 0.000000 0.000000 10.000000 
Rope4_Seg04 0.000000 0.000000 0.000000 0.000000 0.000000 0.000000 10.000000 
Rope4_Seg05 0.000000 0.000000 0.000000 0.000000 0.000000 0.000000 10.000000 
Rope4_Seg06 0.000000 0.000000 0.000000 0.000000 0.000000 0.000000 10.000000 
Rope4_Seg07 0.000000 0.000000 0.000000 0.000000 0.000000 0.000000 10.000000 
Rope4_Seg08 0.000000 0.000000 0.000000 0.000000 0.000000 0.000000 10.000000 
Rope4_Seg09 0.000000 0.000000 0.000000 0.000000 0.000000 0.000000 10.000000 
L_rear_hand01 0.000000 0.000000 0.000000 0.000000 0.000000 0.000000 10.000000 
L_rear_hand02 0.000000 0.000000 0.000000 0.000000 0.000000 0.000000 10.000000 
L_rear_hand03 0.000000 0.000000 0.000000 0.000000 0.000000 0.000000 10.000000 
#Beginning of Data. Separated by tabs
#Fr	Tx	Ty	Tz	Rx	Ry	Rz	SF
[MASTER]
22 0.000000 0.000000 0.000000 0.001660 0.001660 0.001660 0.000000
23 0.000000 0.000000 0.000000 0.001660 0.001660 0.001660 0.000000
[root]
22 -31.709393 -55.975201 1501.864746 -84.258385 -41.418587 -86.696541 1503.241943
23 -31.005365 -56.137115 1501.778320 -83.552444 -41.314198 -86.747887 1503.146973
[chest]
22 -84.512650 -34.090519 0.000000 -11.995028 -20.156197 169.375412 91.129311
23 -84.512650 -34.090519 0.000000 -11.300252 -17.881624 170.086029 91.129311
[L_mid_tent01]
22 27.299171 22.179001 -249.918701 3.862628 36.229202 81.347610 252.381683
23 27.299173 22.178997 -249.918701 3.862628 36.229202 81.347610 252.381683
[R_mid_tent01]
22 23.228794 24.509907 226.238495 160.432037 -47.061241 87.899765 228.744751
23 23.228794 24.509907 226.238495 160.432037 -47.061241 87.899765 228.744751
[spine01]
22 -0.361383 -0.195265 0.000000 0.002062 0.001122 32.879829 0.410763
23 -0.361383 -0.195265 0.000000 0.002062 0.001122 32.879829 0.410763
[Bip01_Neck]
22 165.484543 71.581718 0.000119 176.643677 -1.657967 43.431911 180.302734
23 165.484543 71.581718 0.000119 176.643677 -1.657967 43.431911 180.302734
[L_humerus]
22 -13.983130 -135.272980 -120.471481 164.864349 59.958569 -96.205994 181.680161
23 -13.983130 -135.272980 -120.471481 161.613937 65.609673 -103.319527 181.680161
[R_humerus]
22 -13.983309 -135.273102 125.287651 -167.879318 -41.392143 -101.414261 184.909012
23 -13.983309 -135.273102 125.287651 -169.107803 -54.579742 -97.816406 184.909012
[weapon_bone]
22 235.964890 -300.705902 0.000000 0.000000 -89.951546 -128.212341 382.234833
23 235.964890 -300.705902 0.000000 0.000000 -89.951546 -128.212341 382.234833
[Bip01_Head]
22 213.444199 185.715393 11.776931 23.029144 3.174123 -43.891991 283.173676
23 213.444199 185.715393 11.776930 20.578348 3.196013 -43.890755 283.173676
[eye_left_bone]
22 -24.626970 125.451866 -64.772606 0.000000 -90.000000 -99.840431 143.318359
23 -24.626970 125.451866 -64.772606 0.000000 -90.000000 -99.840431 143.318359
[eye_right_bone]
22 -24.626970 125.451866 64.327362 0.000000 -89.965736 80.156380 143.117676
23 -24.626970 125.451866 64.327362 0.000000 -89.965736 80.156380 143.117676
[L_forearm]
22 322.776093 0.000000 -0.000119 0.000396 -0.002314 -109.419975 322.776093
23 322.776093 0.000000 -0.000119 0.000396 -0.002314 -109.419975 322.776093
[L_front_hand]
22 241.149185 -0.042021 -3.300071 -178.667953 -1.835447 -27.422350 241.171753
23 241.149185 -0.042021 -3.300071 -178.667953 -1.835447 -27.422350 241.171753
[L_weapon_bone]
22 156.183838 0.000000 0.000000 0.000014 0.000007 0.000001 156.183838
23 156.183838 0.000000 0.000000 0.000014 0.000007 0.000001 156.183838
[L_front_hand01_01]
22 86.095154 20.947098 -0.655860 -0.314053 -0.508434 69.417068 88.609184
23 86.095154 20.947098 -0.655860 -0.321505 -0.503456 70.187172 88.609184
[L_front_hand02_01]
22 86.935165 -11.437475 24.513514 145.968994 -56.908298 -51.478970 91.046425
23 86.935165 -11.437475 24.513514 146.961212 -57.331749 -52.661201 91.046425
[L_front_hand03_01]
22 86.637497 -14.123976 -20.424902 -146.056091 55.123112 -53.303532 90.126129
23 86.637497 -14.123976 -20.424902 -146.985443 55.548393 -54.432812 90.126129
[L_front_hand01_02]
22 71.020905 -0.000179 0.000030 0.000318 -0.002326 -105.579170 71.020905
23 71.020905 -0.000179 0.000030 0.000319 -0.002325 -105.617981 71.020905
[L_front_hand02_02]
22 71.020927 -0.000119 0.000060 0.000318 -0.002326 -105.579170 71.020927
23 71.020927 -0.000119 0.000060 0.000319 -0.002325 -105.617981 71.020927
[L_front_hand03_02]
22 71.020905 -0.000060 0.000060 0.000318 -0.002326 -105.579170 71.020905
23 71.020905 -0.000060 0.000060 0.000319 -0.002325 -105.617981 71.020905
[R_forearm]
22 322.776428 -0.000060 0.000030 0.202103 0.065158 -108.062820 322.776428
23 322.776428 -0.000060 0.000030 0.202103 0.065158 -108.062805 322.776428
[R_front_hand]
22 238.847015 -0.006795 2.210259 -2.635298 -10.645461 -26.312506 238.857239
23 238.847015 -0.006795 2.210259 -2.635298 -10.645461 -26.312506 238.857239
[R_weapon_bone]
22 155.664093 0.002503 -0.000030 0.003487 0.001180 -90.988930 155.664078
23 155.664093 0.002503 -0.000030 0.003487 0.001180 -90.988930 155.664078
[R_front_hand01_01]
22 87.624611 14.231146 22.918642 -146.552551 -57.155426 52.280727 91.683487
23 87.624611 14.231146 22.918642 -148.462097 -57.932728 54.541969 91.683487
[R_front_hand02_01]
22 89.356956 14.367283 -19.491137 146.998062 55.533039 54.685249 92.579636
23 89.356956 14.367283 -19.491137 148.801514 56.299931 56.856514 92.579636
[R_front_hand03_01]
22 87.286232 -22.307278 -0.143439 0.117983 -0.440813 -70.109169 90.091743
23 87.286232 -22.307278 -0.143439 0.131531 -0.433516 -71.547462 90.091743
[R_front_hand01_02]
22 71.020905 0.000060 0.000119 0.002323 -0.000334 106.381714 71.020905
23 71.020905 0.000060 0.000119 0.002323 -0.000334 106.381714 71.020905
[R_front_hand02_02]
22 71.020844 -0.000030 -0.000119 0.002323 -0.000334 106.381714 71.020836
23 71.020844 -0.000030 -0.000119 0.002323 -0.000334 106.381714 71.020836
[R_front_hand03_02]
22 71.020905 0.000000 0.000030 0.002323 -0.000334 106.381714 71.020905
23 71.020905 0.000000 0.000030 0.002323 -0.000334 106.381714 71.020905
[null_rope01_connect]
22 328.732483 0.000000 -0.000238 -124.123390 -61.892654 175.434616 328.732483
23 328.732483 0.000000 -0.000238 -123.868286 -62.525150 175.000595 328.732483
[Rope1_Seg01]
22 -0.000025 0.000011 0.000046 14.678230 19.936121 -116.750175 0.000053
23 -0.000024 0.000010 0.000041 97.778625 14.829688 -132.963501 0.000048
[Rope1_Seg02]
22 139.999863 -0.000179 0.000000 -153.239792 22.806364 -11.458929 139.999863
23 139.999863 -0.000179 0.000000 79.062767 -11.049042 -24.228048 139.999863
[Rope1_Seg03]
22 139.999924 0.000060 -0.000060 -11.515231 -19.599628 33.962948 139.999924
23 139.999924 0.000060 -0.000060 14.926270 -36.399170 10.597053 139.999924
[Rope1_Seg04]
22 139.999924 -0.000060 -0.000119 0.675563 -32.806915 12.937180 139.999924
23 139.999924 -0.000060 -0.000119 -0.296477 -29.626572 14.524221 139.999924
[Rope1_Seg05]
22 139.999832 0.000119 -0.000060 -3.163318 -19.663366 8.489976 139.999832
23 139.999832 0.000119 -0.000060 -4.134667 -22.134657 10.893811 139.999832
[Rope1_Seg06]
22 139.999954 0.000119 -0.000060 -1.768909 -7.613350 3.282478 139.999954
23 139.999954 0.000119 -0.000060 -2.860622 -10.145247 4.642291 139.999954
[Rope1_Seg07]
22 139.999985 0.000060 0.000000 -0.428240 -1.652802 0.655801 139.999985
23 139.999985 0.000060 0.000000 -1.487617 -4.255940 1.715093 139.999985
[Rope1_Seg09]
22 121.602913 0.000119 -0.000089 -89.793175 -1.359789 0.847147 121.602913
23 121.602913 0.000119 -0.000089 -89.793175 -1.359789 0.847147 121.602913
[L_mid_hand01]
22 103.859421 1.038730 8.195221 130.544373 -67.584534 -38.866940 104.187431
23 103.859421 1.038730 8.195221 130.544373 -67.584534 -38.866943 104.187431
[L_mid_hand02]
22 105.572853 -4.139662 -10.864139 -168.923172 43.409309 -73.498886 106.211075
23 105.572853 -4.139662 -10.864139 -168.923172 43.409309 -73.498886 106.211075
[L_mid_hand03]
22 104.641464 17.579376 -3.913581 -6.012629 17.808178 74.893669 106.179977
23 104.641464 17.579376 -3.913581 -6.012626 17.808172 74.893661 106.179977
[null_rope02_connect]
22 328.732849 0.000179 -0.000119 -111.760597 31.754639 15.521151 328.732849
23 328.732849 0.000179 -0.000119 -112.098213 31.175770 15.130109 328.732849
[Rope2_Seg01]
22 -0.000084 0.000096 0.000000 -113.420845 39.836689 -24.188786 0.000128
23 -0.000092 0.000095 0.000000 -96.147430 34.704548 -18.474222 0.000132
[Rope2_Seg02]
22 139.999741 -0.000060 -0.000119 -10.241385 -1.308332 7.080320 139.999756
23 139.999741 -0.000060 -0.000119 -11.781581 -0.240749 7.539543 139.999756
[Rope2_Seg03]
22 140.000107 0.000030 0.000000 -11.505817 -4.470181 11.737663 140.000107
23 140.000107 0.000030 0.000000 -13.728482 -3.115580 12.869550 140.000107
[Rope2_Seg04]
22 139.999802 0.000000 -0.000060 -10.823880 -14.641373 20.262529 139.999802
23 139.999802 0.000000 -0.000060 -12.906867 -12.822685 22.347404 139.999802
[Rope2_Seg05]
22 139.999985 -0.000060 0.000119 -6.893297 -10.434921 23.018091 139.999985
23 139.999985 -0.000060 0.000119 -7.089205 -12.455042 23.194582 139.999985
[Rope2_Seg06]
22 139.999893 -0.000030 -0.000119 -1.046598 -5.938771 19.533882 139.999893
23 139.999893 -0.000030 -0.000119 -0.926120 -7.693296 19.298138 139.999893
[Rope2_Seg07]
22 139.999893 0.000060 -0.000060 1.240921 -5.156734 11.899335 139.999893
23 139.999893 0.000060 -0.000060 1.511887 -6.046513 11.905161 139.999893
[Rope2_Seg09]
22 121.338966 0.000089 -0.000060 33.793236 -1.359788 -0.847141 121.338966
23 121.338966 0.000089 -0.000060 33.793236 -1.359788 -0.847141 121.338966
[R_mid_hand01]
22 104.680779 11.144459 -10.335981 -16.212063 45.237240 70.462845 105.778534
23 104.680779 11.144459 -10.335981 -16.212063 45.237247 70.462852 105.778534
[R_mid_hand02]
22 104.070427 2.443552 8.231699 49.067387 -67.749794 39.286469 104.424065
23 104.070427 2.443552 8.231699 49.067368 -67.749771 39.286453 104.424065
[R_mid_hand03]
22 106.028137 -11.221827 -5.996406 -177.101105 15.551026 -76.585571 106.788818
23 106.028137 -11.221827 -5.996406 -177.101105 15.551026 -76.585571 106.788818
[spine02]
22 129.756927 0.001550 0.000119 0.360061 -4.044797 -12.915058 129.756927
23 129.756927 0.001550 0.000119 0.360061 -4.044797 -12.915058 129.756927
[spine03]
22 78.614098 0.081589 -4.898991 1.896495 3.831288 16.473045 78.766640
23 78.614098 0.081594 -4.898991 1.896495 3.831288 16.473045 78.766640
[pelvis]
22 169.435242 0.051022 0.000000 -0.060465 -0.180225 14.087930 169.435257
23 169.435242 0.051022 0.000000 -0.060465 -0.180225 14.087930 169.435257
[null_rope03_connect]
22 -1.257226 -2.466202 137.391083 54.507771 -80.760201 26.216211 137.418976
23 -1.257226 -2.466202 137.391083 53.331089 -80.120483 27.277227 137.418976
[null_rope04_connect]
22 -1.259640 -2.480268 -137.844437 54.507771 -80.760201 26.216211 137.872513
23 -1.259640 -2.480268 -137.844437 53.331089 -80.120483 27.277227 137.872513
[Rope3_Seg01]
22 0.000010 0.000011 -0.000046 -146.016159 -52.508915 -65.857826 0.000048
23 0.000010 0.000010 -0.000041 -160.155441 -64.056305 -55.089722 0.000043
[Rope3_Seg02]
22 139.999924 -0.000119 0.000060 9.831773 -23.439493 1.475627 139.999924
23 139.999924 -0.000119 0.000060 13.466186 -25.969873 1.942309 139.999924
[Rope3_Seg03]
22 139.999924 -0.000119 0.000119 3.121111 -6.248699 -0.971428 139.999924
23 139.999924 -0.000119 0.000119 5.513112 -7.793426 2.246514 139.999924
[Rope3_Seg04]
22 139.999924 0.000119 0.000000 10.368260 -14.836611 10.557467 139.999924
23 139.999924 0.000119 0.000000 11.123019 -14.402316 6.842553 139.999924
[Rope3_Seg05]
22 139.999924 -0.000238 0.000060 9.075075 -14.933676 18.586205 139.999924
23 139.999924 -0.000238 0.000060 13.859794 -18.479498 14.847126 139.999924
[Rope3_Seg06]
22 139.999893 -0.000119 -0.000060 3.376750 -5.202856 9.115336 139.999893
23 139.999893 -0.000119 -0.000060 6.170901 -7.175562 9.845883 139.999893
[Rope3_Seg07]
22 139.999771 0.000060 -0.000119 1.906916 -2.771011 5.598329 139.999771
23 139.999771 0.000060 -0.000119 3.229734 -3.382395 5.962709 139.999771
[Rope3_Seg08]
22 139.999985 -0.000060 0.000000 1.225603 -1.488351 3.295336 139.999985
23 139.999985 -0.000060 0.000000 1.927428 -1.740537 3.539708 139.999985
[Rope3_Seg09]
22 90.185997 -0.000179 -0.000060 89.793228 -1.359877 -0.847183 90.185997
23 90.185997 -0.000179 -0.000060 89.793228 -1.359877 -0.847183 90.185997
[R_rear_hand01]
22 103.366196 -6.073594 -10.757982 -177.714203 24.565960 -73.910950 104.101845
23 103.366196 -6.073594 -10.757982 -177.714203 24.565960 -73.910950 104.101845
[R_rear_hand02]
22 100.509819 12.039542 -7.992327 -12.874829 36.868488 72.167213 101.543350
23 100.509819 12.039542 -7.992327 -12.874829 36.868488 72.167213 101.543350
[R_rear_hand03]
22 101.539970 5.215704 5.435467 71.484581 -71.816628 21.513813 101.819031
23 101.539970 5.215704 5.435467 71.484581 -71.816628 21.513813 101.819031
[Rope4_Seg01]
22 -0.000008 0.000023 -0.000206 82.201981 -36.648869 -149.757339 0.000207
23 -0.000009 0.000020 -0.000209 87.989166 -40.758183 -151.528397 0.000210
[Rope4_Seg02]
22 139.999985 0.000060 0.000119 -16.007748 15.018258 -12.238662 139.999985
23 139.999985 0.000060 0.000119 -16.801260 11.329335 -13.522757 139.999985
[Rope4_Seg03]
22 139.999924 0.000000 -0.000238 -16.622044 35.232124 -17.886316 139.999924
23 139.999924 0.000000 -0.000238 -22.912172 31.612820 -24.089956 139.999924
[Rope4_Seg04]
22 139.999985 0.000000 0.000119 -0.000354 28.823774 -6.210779 139.999985
23 139.999985 0.000000 0.000119 -3.317654 29.988960 -9.572142 139.999985
[Rope4_Seg05]
22 139.999802 -0.000060 -0.000119 3.474460 13.174757 -4.360005 139.999802
23 139.999802 -0.000060 -0.000119 2.540960 14.972689 -5.644395 139.999802
[Rope4_Seg06]
22 139.999924 0.000000 0.000060 7.318143 14.266405 -7.559309 139.999924
23 139.999924 0.000000 0.000060 7.459607 18.656944 -10.160551 139.999924
[Rope4_Seg07]
22 139.999802 0.000000 0.000000 10.910856 12.899530 -9.330202 139.999802
23 139.999802 0.000000 0.000000 11.573839 15.106461 -11.477973 139.999802
[Rope4_Seg08]
22 139.999924 0.000000 0.000119 6.334218 6.151750 -6.377816 139.999924
23 139.999924 0.000000 0.000119 6.003731 6.072541 -6.910266 139.999924
[Rope4_Seg09]
22 90.185791 0.000060 0.000060 -135.617828 2.228885 0.850567 90.185791
23 90.185791 0.000060 0.000060 -135.617828 2.228885 0.850567 90.185791
[L_rear_hand01]
22 101.696655 -8.392275 -7.654577 -12.874837 -36.868492 107.832779 102.329041
23 101.696655 -8.392275 -7.654577 -12.874829 -36.868488 107.832764 102.329041
[L_rear_hand02]
22 102.726799 -1.568258 5.773216 71.484581 71.816628 158.486160 102.900848
23 102.726799 -1.568258 5.773216 71.484581 71.816628 158.486160 102.900848
[L_rear_hand03]
22 104.552910 9.721220 -10.420293 -177.714203 -24.565966 -106.089035 105.519653
23 104.552910 9.721220 -10.420293 -177.714203 -24.565960 -106.089035 105.519653
